<?xml version="1.0" encoding="UTF-8" standalone="no"?>
<!-- Created with Inkscape (http://www.inkscape.org/) -->

<svg
   xmlns:dc="http://purl.org/dc/elements/1.1/"
   xmlns:cc="http://creativecommons.org/ns#"
   xmlns:rdf="http://www.w3.org/1999/02/22-rdf-syntax-ns#"
   xmlns:svg="http://www.w3.org/2000/svg"
   xmlns="http://www.w3.org/2000/svg"
   xmlns:sodipodi="http://sodipodi.sourceforge.net/DTD/sodipodi-0.dtd"
   xmlns:inkscape="http://www.inkscape.org/namespaces/inkscape"
   width="210mm"
   height="297mm"
   viewBox="0 0 210 297"
   version="1.1"
   id="svg8"
   inkscape:version="0.92.1 r15371"
   sodipodi:docname="lion.svg">
  <defs
     id="defs2" />
  <sodipodi:namedview
     id="base"
     pagecolor="#ffffff"
     bordercolor="#666666"
     borderopacity="1.0"
     inkscape:pageopacity="0.0"
     inkscape:pageshadow="2"
     inkscape:zoom="0.93157664"
     inkscape:cx="397.40522"
     inkscape:cy="533.2286"
     inkscape:document-units="mm"
     inkscape:current-layer="g236"
     showgrid="false"
     inkscape:window-width="1400"
     inkscape:window-height="1021"
     inkscape:window-x="0"
     inkscape:window-y="0"
     inkscape:window-maximized="1" />
  <metadata
     id="metadata5">
    <rdf:RDF>
      <cc:Work
         rdf:about="">
        <dc:format>image/svg+xml</dc:format>
        <dc:type
           rdf:resource="http://purl.org/dc/dcmitype/StillImage" />
        <dc:title></dc:title>
      </cc:Work>
    </rdf:RDF>
  </metadata>
  <g
     inkscape:label="Layer 1"
     inkscape:groupmode="layer"
     id="layer1">
    <g
       id="g236"
       transform="translate(-1.9881169,-2.2721337)">
      <path
         style="fill:#8c8c8c;fill-opacity:1;stroke-width:0.80875933"
         d="m 84.307943,227.36365 -3.334489,-0.30456 -14.358913,-21.54251 c -15.902188,-23.85786 -15.012328,-21.41018 -9.25668,-25.46182 1.539803,-1.08394 1.107919,-1.02234 -1.949518,0.27804 -2.160131,0.91873 -4.20788,1.36334 -4.55055,0.98801 -1.602762,-1.75551 -28.596759,-42.81827 -28.869807,-43.91621 -0.19112,-0.7685 1.019993,-2.13194 3.152328,-3.54879 3.573362,-2.37436 3.199958,-2.41116 -1.979589,-0.19509 l -3.015998,1.2904 L 12.850977,124.0533 5.5572285,113.15549 25.866942,90.890358 46.176657,68.625229 h 60.364453 60.36444 l 18.19473,19.930596 c 10.00711,10.961827 19.17459,21.094595 20.37219,22.517255 l 2.17745,2.58665 -7.64497,11.45064 c -4.20473,6.29785 -7.79299,11.45064 -7.97391,11.45064 -0.18091,0 -2.08783,-0.72118 -4.23759,-1.60262 -3.2605,-1.33686 -3.58066,-1.37039 -1.93066,-0.20219 5.77517,4.08885 6.67395,1.58419 -9.22963,25.72087 -7.8925,11.97837 -14.45449,21.89115 -14.58221,22.02841 -0.12771,0.13726 -1.63633,-0.33385 -3.35247,-1.04692 l -3.12026,-1.29649 2.57684,2.26007 2.57684,2.26005 -14.30385,21.62782 -14.30385,21.62781 -11.42146,0.006 -11.42145,0.006 -0.67154,-3.43723 -0.67153,-3.43723 -0.28709,3.43723 -0.2871,3.43723 -9.860799,-0.1413 c -5.423435,-0.0777 -11.361318,-0.2783 -13.195288,-0.44581 z m 33.662967,-11.08362 c 0,-1.05831 8.21846,-39.64726 8.56236,-40.2037 0.20448,-0.33087 5.64044,-5.03041 12.0799,-10.44344 11.22932,-9.43938 11.70509,-9.9622 11.63417,-12.78461 -0.0407,-1.6185 -1.0415,-11.49537 -2.22408,-21.94858 l -2.15016,-19.00585 -4.04379,-2.20519 c -4.61444,-2.51638 -4.51049,-2.76391 0.42885,-1.02121 1.90459,0.67198 3.60816,1.07649 3.78572,0.89893 1.83608,-1.83607 15.38251,-21.178549 14.94145,-21.334357 -0.32355,-0.114295 -12.45123,1.547951 -26.95039,3.693879 L 107.67281,95.82759 79.651222,91.694813 c -15.411875,-2.273027 -27.925428,-3.897325 -27.807895,-3.60955 0.117533,0.287775 3.668179,5.275612 7.890326,11.084083 l 7.67663,10.560854 2.837241,-1.2157 c 5.146268,-2.20508 5.306057,-2.097 1.159266,0.78418 l -4.104254,2.85163 -2.171447,20.09075 c -1.194297,11.04992 -2.167931,20.82139 -2.163632,21.71438 0.0053,1.097 3.905504,4.88513 12.024473,11.67892 l 12.016654,10.05528 3.87187,18.64956 c 2.12952,10.25726 4.142749,19.37745 4.473831,20.26708 0.554469,1.48988 1.470623,1.6384 11.609305,1.88217 6.05402,0.14556 11.00732,0.0518 11.00732,-0.20842 z m -11.19809,-12.18762 c -0.12542,-2.22409 -0.50812,-9.28764 -0.85044,-15.69677 -0.6908,-12.93356 0.0585,-11.22977 -7.768235,-17.66455 l -3.197042,-2.62847 h 11.111087 11.11108 l -4.65892,4.21737 -4.65893,4.21736 -0.43029,15.79943 c -0.23666,8.68969 -0.5329,13.97972 -0.65831,11.75563 z M 91.336643,142.30304 c -3.247637,-0.43949 -3.839116,-0.88426 -6.291593,-4.73108 -2.895418,-4.54158 -2.752211,-4.84615 1.487668,-3.16391 1.499974,0.59514 4.455957,1.71707 6.56884,2.49317 3.382612,1.24249 3.841607,1.69299 3.841607,3.77048 0,1.41312 -0.405455,2.31067 -1.010949,2.23791 -0.556022,-0.0668 -2.624028,-0.33976 -4.595573,-0.60657 z m 25.016747,-1.52481 c 0,-2.09642 0.48943,-2.43067 7.04831,-4.81349 3.87657,-1.40836 7.13401,-2.47494 7.23877,-2.37018 0.10475,0.10475 -1.15629,2.26597 -2.80233,4.8027 l -2.99278,4.61224 -4.24598,0.0108 c -4.10854,0.0105 -4.24599,-0.0621 -4.24599,-2.24206 z"
         id="path240"
         inkscape:connector-curvature="0" />
      <path
         style="fill:#333333;fill-opacity:1;stroke-width:0.80875933"
         d="m 89.947437,227.18292 -9.017628,-0.44525 -13.84876,-20.88236 C 59.464232,194.37002 53.149826,184.6427 53.049036,184.23905 c -0.10079,-0.40366 1.454484,-1.8323 3.456163,-3.17477 4.16781,-2.79524 3.138036,-3.25637 -1.728111,-0.77385 -1.804655,0.92067 -3.385589,1.55757 -3.513186,1.41533 -0.127597,-0.14224 -6.869105,-10.24634 -14.981129,-22.45357 -16.458197,-24.7668 -15.399976,-21.71792 -9.207348,-26.5277 2.313155,-1.79662 2.290542,-1.79521 -2.279129,0.14225 l -4.615466,1.95687 -6.948383,-10.53903 C 9.410836,118.48811 6.4040603,113.38555 6.5507234,112.94556 6.6973865,112.50557 15.722507,102.32287 26.606545,90.317323 l 19.789163,-21.828261 60.252572,0.557265 c 54.26945,0.501927 60.4026,0.689386 61.76343,1.887791 2.39538,2.109477 38.08687,41.410492 38.40402,42.287872 0.15713,0.43467 -3.06411,5.84079 -7.15829,12.01361 -8.20932,12.37722 -7.30804,11.82641 -13.8314,8.45305 -4.0863,-2.11311 -3.52862,-0.77144 0.84625,2.03591 3.24129,2.07993 3.91536,2.87724 3.33575,3.94565 -0.39953,0.73644 -6.93916,10.7208 -14.53253,22.18747 l -13.80613,20.84848 -3.32615,-1.69688 c -4.18351,-2.13427 -5.02739,-1.55565 -1.19004,0.81596 1.58026,0.97666 2.8732,2.14197 2.8732,2.58961 0,0.44762 -6.19878,10.19865 -13.77507,21.66895 -15.80793,23.93281 -13.08391,21.84235 -28.4826,21.85811 l -8.69417,0.009 -0.0568,-2.62847 c -0.0313,-1.44565 -0.36962,-3.35635 -0.75191,-4.24598 -0.51048,-1.18795 -0.71017,-0.48988 -0.75191,2.62847 l -0.0568,4.24598 -4.24599,-0.16132 c -2.33529,-0.0887 -8.30392,-0.36168 -13.263613,-0.60657 z m 28.046603,-10.75693 c 0.0127,-0.1112 1.93944,-9.23465 4.28161,-20.27434 l 4.25847,-20.07215 12.09578,-10.18955 c 10.32147,-8.69489 12.06835,-10.49594 11.90893,-12.27822 -0.32825,-3.66975 -3.39521,-32.85789 -3.93631,-37.46193 -0.4918,-4.18437 -0.71143,-4.53694 -3.86048,-6.19714 -1.83646,-0.9682 -2.6683,-1.56285 -1.84855,-1.32146 5.33975,1.57238 4.71567,2.02213 13.0319,-9.391507 4.31178,-5.917723 7.42958,-10.896176 6.92842,-11.063229 -0.50116,-0.167053 -12.65787,1.425841 -27.01491,3.539765 L 107.7352,95.559727 79.896112,91.491705 C 64.584613,89.254292 51.920247,87.546464 51.753077,87.69653 c -0.16717,0.150066 2.664052,4.382058 6.291604,9.404427 10.425211,14.433773 9.109574,13.160853 12.037583,11.646723 4.984173,-2.57742 3.339375,-0.77176 -2.812532,3.08759 -0.08455,0.053 -1.092088,9.00449 -2.238985,19.89211 -1.146897,10.88762 -2.212997,20.62988 -2.36911,21.64946 -0.234182,1.52944 1.855789,3.66277 11.945397,12.19324 l 12.229244,10.33947 3.901002,18.94398 c 2.145549,10.4192 4.080183,19.58089 4.299186,20.35932 0.354803,1.26116 1.625623,1.41533 11.666314,1.41533 6.19747,0 11.27854,-0.091 11.29126,-0.20219 z m -11.54311,-22.44307 c -0.33094,-3.78095 -0.6039,-9.24036 -0.60657,-12.13202 l -0.005,-5.25757 -5.38349,-4.24535 -5.383501,-4.24536 10.842621,0.0316 10.84262,0.0315 -4.64556,4.21445 -4.64554,4.21446 -0.20701,12.13139 c -0.19839,11.62675 -0.23203,11.84543 -0.80873,5.25694 z m 9.90246,-52.82491 c 0,-2.49499 -0.29145,-2.29979 7.89397,-5.2871 l 6.58649,-2.40377 -2.90656,4.37759 c -2.07377,3.12333 -3.4241,4.3776 -4.71286,4.3776 -0.99346,0 -2.94361,0.22746 -4.33367,0.50547 -2.30535,0.46107 -2.52737,0.32317 -2.52737,-1.56979 z m -31.110911,-3.50423 c -1.808826,-2.72429 -2.52506,-4.37349 -1.77424,-4.08538 0.692506,0.26574 4.007662,1.45893 7.367014,2.65152 5.276968,1.87336 6.107912,2.42915 6.107912,4.08538 0,1.77836 -0.313483,1.91703 -4.333672,1.91703 h -4.333672 z"
         id="path238"
         inkscape:connector-curvature="0" />
    </g>
  </g>
</svg>
